<svg width="26" height="26" viewBox="0 0 26 26" fill="none" xmlns="http://www.w3.org/2000/svg">
<path d="M6.67773 23.9688H3.08206C2.64849 23.9688 2.38691 23.7268 2.26961 23.5825C2.06709 23.3334 1.98863 23.0092 2.0545 22.6929C3.10918 17.6269 7.57997 13.9272 12.7412 13.8072C12.8272 13.8104 12.9133 13.8125 13 13.8125C13.0875 13.8125 13.1744 13.8103 13.2611 13.8071C14.5232 13.8359 15.756 14.0732 16.9294 14.5138C17.4544 14.7111 18.04 14.4451 18.2372 13.92C18.4344 13.3949 18.1685 12.8094 17.6434 12.6122C17.4753 12.549 17.306 12.4899 17.1358 12.4338C18.8168 11.1729 19.9063 9.16444 19.9063 6.90625C19.9063 3.09816 16.8082 0 13 0C9.19187 0 6.09375 3.09816 6.09375 6.90625C6.09375 9.16647 7.18514 11.1765 8.86859 12.4372C7.32631 12.945 5.87904 13.7345 4.61246 14.7763C2.29012 16.6866 0.675429 19.351 0.0659009 22.2789C-0.125139 23.1963 0.103682 24.1386 0.693711 24.8641C1.28074 25.586 2.15129 26 3.08206 26H6.67773C7.23866 26 7.69336 25.5453 7.69336 24.9844C7.69336 24.4234 7.23866 23.9688 6.67773 23.9688ZM8.125 6.90625C8.125 4.21814 10.3119 2.03125 13 2.03125C15.6881 2.03125 17.875 4.21814 17.875 6.90625C17.875 9.51473 15.8156 11.6511 13.2374 11.7754C13.1583 11.774 13.0792 11.7728 13 11.7728C12.9206 11.7728 12.8412 11.7739 12.7619 11.7754C10.184 11.6507 8.125 9.51448 8.125 6.90625Z" fill="white"/>
<path d="M25.2225 17.4996C24.7878 16.5271 23.8085 15.897 22.7253 15.8945H19.558C19.5557 15.8945 19.5535 15.8945 19.5512 15.8945C18.4086 15.8945 17.4118 16.5679 17.0107 17.6113C16.9573 17.7501 16.892 17.925 16.8239 18.1289H10.1743C9.89976 18.1289 9.63691 18.2401 9.44562 18.437L7.70098 20.2341C7.31671 20.6299 7.31864 21.26 7.70529 21.6534L9.48264 23.4619C9.67358 23.6561 9.93459 23.7656 10.207 23.7656H13.5078C14.0687 23.7656 14.5234 23.3109 14.5234 22.7499C14.5234 22.189 14.0687 21.7343 13.5078 21.7343H10.6328L9.84938 20.9372L10.6038 20.1602H17.5858C18.0537 20.1602 18.461 19.8405 18.5723 19.386C18.6545 19.0505 18.7575 18.728 18.9066 18.3402C19.005 18.0844 19.2519 17.9258 19.5536 17.9258C19.5543 17.9258 19.555 17.9258 19.5556 17.9258H22.7229C23.0101 17.9264 23.2573 18.0808 23.3681 18.3286C23.6407 18.9386 23.9663 19.8829 23.9687 20.9177C23.9712 21.9602 23.646 22.9262 23.3726 23.553C23.2624 23.8057 23.0131 23.9688 22.7348 23.9688C22.7342 23.9688 22.7337 23.9688 22.7331 23.9688H19.5275C19.2466 23.9681 18.9834 23.7873 18.8727 23.5189C18.7539 23.2309 18.651 22.9021 18.558 22.5136C18.4274 21.9681 17.8792 21.6317 17.3339 21.7623C16.7883 21.8928 16.452 22.4409 16.5825 22.9864C16.7004 23.4789 16.8353 23.9064 16.9949 24.2934C17.4214 25.3275 18.4137 25.9974 19.5252 25.9999H22.7308C22.733 25.9999 22.735 25.9999 22.7372 25.9999C23.8214 25.9999 24.8013 25.3586 25.2346 24.3647C25.5856 23.5598 26.0033 22.3075 26 20.9129C25.9967 19.522 25.5754 18.289 25.2225 17.4996Z" fill="white"/>
<path d="M21.8867 21.9375C22.4477 21.9375 22.9024 21.4828 22.9024 20.9219C22.9024 20.361 22.4477 19.9062 21.8867 19.9062C21.3258 19.9062 20.8711 20.361 20.8711 20.9219C20.8711 21.4828 21.3258 21.9375 21.8867 21.9375Z" fill="white"/>
</svg>
