<svg width="14" height="14" viewBox="0 0 14 14" fill="none" xmlns="http://www.w3.org/2000/svg">
<path d="M6.00005 1C6.00005 0.447716 6.44777 0 7.00005 0C7.55234 0 8.00005 0.447715 8.00005 1V13C8.00005 13.5523 7.55234 14 7.00005 14C6.44777 14 6.00005 13.5523 6.00005 13V1Z" fill="#600160"/>
<path d="M13 5.99957C13.5523 5.99957 14 6.44728 14 6.99957C14 7.55185 13.5523 7.99957 13 7.99957L1 7.99957C0.447716 7.99957 -2.41411e-08 7.55185 0 6.99957C2.41411e-08 6.44728 0.447715 5.99957 1 5.99957L13 5.99957Z" fill="#600160"/>
</svg>
