<svg width="113" height="45" viewBox="0 0 113 45" fill="none" xmlns="http://www.w3.org/2000/svg">
<path d="M13.08 36.552H13.008C12.8 37.336 12.288 37.992 11.472 38.52C10.672 39.032 9.632 39.288 8.352 39.288C7.328 39.288 6.384 39.104 5.52 38.736C4.672 38.352 3.944 37.8 3.336 37.08C2.728 36.344 2.248 35.44 1.896 34.368C1.56 33.28 1.392 32.032 1.392 30.624C1.392 29.232 1.56 28 1.896 26.928C2.232 25.84 2.712 24.936 3.336 24.216C3.96 23.48 4.712 22.92 5.592 22.536C6.472 22.152 7.448 21.96 8.52 21.96C10.024 21.96 11.28 22.296 12.288 22.968C13.296 23.64 14.072 24.528 14.616 25.632L12.96 26.64C12.576 25.744 12 25.04 11.232 24.528C10.48 24.016 9.576 23.76 8.52 23.76C7.784 23.76 7.112 23.896 6.504 24.168C5.896 24.424 5.368 24.792 4.92 25.272C4.488 25.752 4.152 26.328 3.912 27C3.672 27.672 3.552 28.424 3.552 29.256V31.968C3.552 32.8 3.672 33.56 3.912 34.248C4.152 34.92 4.488 35.496 4.92 35.976C5.368 36.456 5.912 36.832 6.552 37.104C7.192 37.36 7.912 37.488 8.712 37.488C9.288 37.488 9.832 37.416 10.344 37.272C10.872 37.112 11.328 36.88 11.712 36.576C12.112 36.272 12.424 35.896 12.648 35.448C12.872 34.984 12.984 34.44 12.984 33.816V32.16H9.288V30.384H14.952V39H13.08V36.552ZM18.7275 39V26.616H20.6475V28.896H20.7675C20.9915 28.304 21.3915 27.776 21.9675 27.312C22.5435 26.848 23.3355 26.616 24.3435 26.616H25.0875V28.536H23.9595C22.9195 28.536 22.1035 28.736 21.5115 29.136C20.9355 29.52 20.6475 30.008 20.6475 30.6V39H18.7275ZM32.0788 39.288C31.2308 39.288 30.4628 39.136 29.7748 38.832C29.1028 38.528 28.5188 38.096 28.0228 37.536C27.5428 36.96 27.1668 36.28 26.8948 35.496C26.6388 34.696 26.5108 33.8 26.5108 32.808C26.5108 31.832 26.6388 30.944 26.8948 30.144C27.1668 29.344 27.5428 28.664 28.0228 28.104C28.5188 27.528 29.1028 27.088 29.7748 26.784C30.4628 26.48 31.2308 26.328 32.0788 26.328C32.9108 26.328 33.6548 26.48 34.3108 26.784C34.9668 27.088 35.5268 27.512 35.9908 28.056C36.4548 28.584 36.8068 29.216 37.0468 29.952C37.3028 30.688 37.4308 31.496 37.4308 32.376V33.288H28.5268V33.864C28.5268 34.392 28.6068 34.888 28.7668 35.352C28.9428 35.8 29.1828 36.192 29.4868 36.528C29.8068 36.864 30.1908 37.128 30.6388 37.32C31.1028 37.512 31.6228 37.608 32.1988 37.608C32.9828 37.608 33.6628 37.424 34.2388 37.056C34.8308 36.688 35.2868 36.16 35.6068 35.472L36.9748 36.456C36.5748 37.304 35.9508 37.992 35.1028 38.52C34.2548 39.032 33.2468 39.288 32.0788 39.288ZM32.0788 27.936C31.5508 27.936 31.0708 28.032 30.6388 28.224C30.2068 28.4 29.8308 28.656 29.5108 28.992C29.2068 29.328 28.9668 29.728 28.7908 30.192C28.6148 30.64 28.5268 31.136 28.5268 31.68V31.848H35.3668V31.584C35.3668 30.48 35.0628 29.6 34.4548 28.944C33.8628 28.272 33.0708 27.936 32.0788 27.936ZM45.2507 39.288C44.4027 39.288 43.6347 39.136 42.9467 38.832C42.2747 38.528 41.6907 38.096 41.1947 37.536C40.7147 36.96 40.3387 36.28 40.0667 35.496C39.8107 34.696 39.6827 33.8 39.6827 32.808C39.6827 31.832 39.8107 30.944 40.0667 30.144C40.3387 29.344 40.7147 28.664 41.1947 28.104C41.6907 27.528 42.2747 27.088 42.9467 26.784C43.6347 26.48 44.4027 26.328 45.2507 26.328C46.0827 26.328 46.8267 26.48 47.4827 26.784C48.1387 27.088 48.6987 27.512 49.1627 28.056C49.6267 28.584 49.9787 29.216 50.2187 29.952C50.4747 30.688 50.6027 31.496 50.6027 32.376V33.288H41.6987V33.864C41.6987 34.392 41.7787 34.888 41.9387 35.352C42.1147 35.8 42.3547 36.192 42.6587 36.528C42.9787 36.864 43.3627 37.128 43.8107 37.32C44.2747 37.512 44.7947 37.608 45.3707 37.608C46.1547 37.608 46.8347 37.424 47.4107 37.056C48.0027 36.688 48.4587 36.16 48.7787 35.472L50.1467 36.456C49.7467 37.304 49.1227 37.992 48.2747 38.52C47.4267 39.032 46.4187 39.288 45.2507 39.288ZM45.2507 27.936C44.7227 27.936 44.2427 28.032 43.8107 28.224C43.3787 28.4 43.0027 28.656 42.6827 28.992C42.3787 29.328 42.1387 29.728 41.9627 30.192C41.7867 30.64 41.6987 31.136 41.6987 31.68V31.848H48.5387V31.584C48.5387 30.48 48.2347 29.6 47.6267 28.944C47.0347 28.272 46.2427 27.936 45.2507 27.936ZM53.7666 39V26.616H55.6866V28.632H55.7826C56.0866 27.928 56.5106 27.368 57.0546 26.952C57.6146 26.536 58.3586 26.328 59.2866 26.328C60.5666 26.328 61.5746 26.744 62.3106 27.576C63.0626 28.392 63.4386 29.552 63.4386 31.056V39H61.5186V31.392C61.5186 29.168 60.5826 28.056 58.7106 28.056C58.3266 28.056 57.9506 28.104 57.5826 28.2C57.2306 28.296 56.9106 28.44 56.6226 28.632C56.3346 28.824 56.1026 29.072 55.9266 29.376C55.7666 29.664 55.6866 30.008 55.6866 30.408V39H53.7666ZM69.4472 39C68.7752 39 68.2632 38.816 67.9112 38.448C67.5752 38.064 67.4072 37.584 67.4072 37.008V21.24H69.3272V37.32H71.1512V39H69.4472ZM74.9062 23.712C74.4903 23.712 74.1863 23.616 73.9943 23.424C73.8183 23.216 73.7303 22.952 73.7303 22.632V22.32C73.7303 22 73.8183 21.744 73.9943 21.552C74.1863 21.344 74.4903 21.24 74.9062 21.24C75.3223 21.24 75.6183 21.344 75.7943 21.552C75.9863 21.744 76.0823 22 76.0823 22.32V22.632C76.0823 22.952 75.9863 23.216 75.7943 23.424C75.6183 23.616 75.3223 23.712 74.9062 23.712ZM73.9463 26.616H75.8663V39H73.9463V26.616ZM90.3863 40.368C90.3863 41.648 89.8823 42.584 88.8743 43.176C87.8823 43.784 86.3863 44.088 84.3863 44.088C82.4503 44.088 81.0583 43.824 80.2103 43.296C79.3623 42.768 78.9383 42.016 78.9383 41.04C78.9383 40.368 79.1143 39.84 79.4663 39.456C79.8183 39.088 80.2983 38.816 80.9062 38.64V38.376C80.1703 38.024 79.8023 37.448 79.8023 36.648C79.8023 36.024 80.0023 35.552 80.4023 35.232C80.8023 34.896 81.3143 34.648 81.9383 34.488V34.392C81.2023 34.04 80.6263 33.536 80.2103 32.88C79.8103 32.224 79.6103 31.464 79.6103 30.6C79.6103 29.976 79.7223 29.4 79.9463 28.872C80.1703 28.344 80.4823 27.896 80.8823 27.528C81.2983 27.144 81.7863 26.848 82.3463 26.64C82.9223 26.432 83.5623 26.328 84.2663 26.328C85.1463 26.328 85.9303 26.488 86.6183 26.808V26.592C86.6183 26.112 86.7303 25.72 86.9543 25.416C87.1783 25.096 87.5463 24.936 88.0583 24.936H89.9062V26.616H87.5543V27.408C88.0023 27.792 88.3463 28.256 88.5863 28.8C88.8423 29.328 88.9703 29.928 88.9703 30.6C88.9703 31.224 88.8583 31.8 88.6343 32.328C88.4103 32.856 88.0903 33.312 87.6743 33.696C87.2743 34.064 86.7863 34.352 86.2103 34.56C85.6343 34.768 84.9943 34.872 84.2903 34.872C83.8903 34.872 83.4903 34.832 83.0903 34.752C82.6743 34.864 82.2983 35.032 81.9623 35.256C81.6263 35.464 81.4583 35.76 81.4583 36.144C81.4583 36.512 81.6343 36.76 81.9863 36.888C82.3383 37.016 82.7943 37.08 83.3543 37.08H85.9943C87.5303 37.08 88.6423 37.376 89.3303 37.968C90.0343 38.544 90.3863 39.344 90.3863 40.368ZM88.5863 40.512C88.5863 40.016 88.3943 39.616 88.0103 39.312C87.6423 39.024 86.9783 38.88 86.0183 38.88H81.8903C81.1223 39.232 80.7383 39.792 80.7383 40.56C80.7383 41.104 80.9383 41.568 81.3383 41.952C81.7543 42.336 82.4503 42.528 83.4263 42.528H85.2023C86.2743 42.528 87.1063 42.36 87.6983 42.024C88.2903 41.688 88.5863 41.184 88.5863 40.512ZM84.2903 33.336C85.1063 33.336 85.7543 33.144 86.2343 32.76C86.7143 32.36 86.9543 31.752 86.9543 30.936V30.264C86.9543 29.448 86.7143 28.848 86.2343 28.464C85.7543 28.064 85.1063 27.864 84.2903 27.864C83.4743 27.864 82.8263 28.064 82.3463 28.464C81.8663 28.848 81.6263 29.448 81.6263 30.264V30.936C81.6263 31.752 81.8663 32.36 82.3463 32.76C82.8263 33.144 83.4743 33.336 84.2903 33.336ZM92.6259 21.24H94.5459V28.632H94.6419C94.9459 27.928 95.3699 27.368 95.9139 26.952C96.4739 26.536 97.2179 26.328 98.1459 26.328C99.4259 26.328 100.434 26.744 101.17 27.576C101.922 28.392 102.298 29.552 102.298 31.056V39H100.378V31.392C100.378 29.168 99.4419 28.056 97.5699 28.056C97.1859 28.056 96.8099 28.104 96.4419 28.2C96.0899 28.296 95.7699 28.44 95.4819 28.632C95.1939 28.824 94.9619 29.072 94.7859 29.376C94.6259 29.664 94.5459 30.008 94.5459 30.408V39H92.6259V21.24ZM109.003 39C108.331 39 107.819 38.816 107.467 38.448C107.131 38.064 106.963 37.568 106.963 36.96V28.296H104.923V26.616H106.075C106.491 26.616 106.771 26.536 106.915 26.376C107.075 26.2 107.155 25.904 107.155 25.488V23.184H108.883V26.616H111.595V28.296H108.883V37.32H111.403V39H109.003Z" fill="#42B654"/>
<rect width="30" height="4" fill="#E63636"/>
<rect x="31" width="30" height="4" fill="#E5C936"/>
<rect x="62" width="30" height="4" fill="#42B654"/>
</svg>
