<svg width="30" height="30" viewBox="0 0 30 30" fill="none" xmlns="http://www.w3.org/2000/svg">
<g filter="url(#filter0_d)">
<path d="M8.67773 23.9688H5.08206C4.64849 23.9688 4.38691 23.7268 4.26961 23.5825C4.06709 23.3334 3.98863 23.0092 4.0545 22.6929C5.10918 17.6269 9.57997 13.9272 14.7412 13.8072C14.8272 13.8104 14.9133 13.8125 15 13.8125C15.0875 13.8125 15.1744 13.8103 15.2611 13.8071C16.5232 13.8359 17.756 14.0732 18.9294 14.5138C19.4544 14.7111 20.04 14.4451 20.2372 13.92C20.4344 13.3949 20.1685 12.8094 19.6434 12.6122C19.4753 12.549 19.306 12.4899 19.1358 12.4338C20.8168 11.1729 21.9063 9.16444 21.9063 6.90625C21.9063 3.09816 18.8082 0 15 0C11.1919 0 8.09375 3.09816 8.09375 6.90625C8.09375 9.16647 9.18514 11.1765 10.8686 12.4372C9.32631 12.945 7.87904 13.7345 6.61246 14.7763C4.29012 16.6866 2.67543 19.351 2.0659 22.2789C1.87486 23.1963 2.10368 24.1386 2.69371 24.8641C3.28074 25.586 4.15129 26 5.08206 26H8.67773C9.23866 26 9.69336 25.5453 9.69336 24.9844C9.69336 24.4234 9.23866 23.9688 8.67773 23.9688ZM10.125 6.90625C10.125 4.21814 12.3119 2.03125 15 2.03125C17.6881 2.03125 19.875 4.21814 19.875 6.90625C19.875 9.51473 17.8156 11.6511 15.2374 11.7754C15.1583 11.774 15.0792 11.7728 15 11.7728C14.9206 11.7728 14.8412 11.7739 14.7619 11.7754C12.184 11.6507 10.125 9.51448 10.125 6.90625Z" fill="#42B654"/>
<path d="M27.2225 17.4996C26.7878 16.5271 25.8085 15.897 24.7253 15.8945H21.558C21.5557 15.8945 21.5535 15.8945 21.5512 15.8945C20.4086 15.8945 19.4118 16.5679 19.0107 17.6113C18.9573 17.7501 18.892 17.925 18.8239 18.1289H12.1743C11.8998 18.1289 11.6369 18.2401 11.4456 18.437L9.70098 20.2341C9.31671 20.6299 9.31864 21.26 9.70529 21.6534L11.4826 23.4619C11.6736 23.6561 11.9346 23.7656 12.207 23.7656H15.5078C16.0687 23.7656 16.5234 23.3109 16.5234 22.7499C16.5234 22.189 16.0687 21.7343 15.5078 21.7343H12.6328L11.8494 20.9372L12.6038 20.1602H19.5858C20.0537 20.1602 20.461 19.8405 20.5723 19.386C20.6545 19.0505 20.7575 18.728 20.9066 18.3402C21.005 18.0844 21.2519 17.9258 21.5536 17.9258C21.5543 17.9258 21.555 17.9258 21.5556 17.9258H24.7229C25.0101 17.9264 25.2573 18.0808 25.3681 18.3286C25.6407 18.9386 25.9663 19.8829 25.9687 20.9177C25.9712 21.9602 25.646 22.9262 25.3726 23.553C25.2624 23.8057 25.0131 23.9688 24.7348 23.9688C24.7342 23.9688 24.7337 23.9688 24.7331 23.9688H21.5275C21.2466 23.9681 20.9834 23.7873 20.8727 23.5189C20.7539 23.2309 20.651 22.9021 20.558 22.5136C20.4274 21.9681 19.8792 21.6317 19.3339 21.7623C18.7883 21.8928 18.452 22.4409 18.5825 22.9864C18.7004 23.4789 18.8353 23.9064 18.9949 24.2934C19.4214 25.3275 20.4137 25.9974 21.5252 25.9999H24.7308C24.733 25.9999 24.735 25.9999 24.7372 25.9999C25.8214 25.9999 26.8013 25.3586 27.2346 24.3647C27.5856 23.5598 28.0033 22.3075 28 20.9129C27.9967 19.522 27.5754 18.289 27.2225 17.4996Z" fill="#42B654"/>
<path d="M23.8867 21.9375C24.4477 21.9375 24.9024 21.4828 24.9024 20.9219C24.9024 20.361 24.4477 19.9062 23.8867 19.9062C23.3258 19.9062 22.8711 20.361 22.8711 20.9219C22.8711 21.4828 23.3258 21.9375 23.8867 21.9375Z" fill="#42B654"/>
</g>
<defs>
<filter id="filter0_d" x="0" y="0" width="30" height="30" filterUnits="userSpaceOnUse" color-interpolation-filters="sRGB">
<feFlood flood-opacity="0" result="BackgroundImageFix"/>
<feColorMatrix in="SourceAlpha" type="matrix" values="0 0 0 0 0 0 0 0 0 0 0 0 0 0 0 0 0 0 127 0"/>
<feOffset dy="2"/>
<feGaussianBlur stdDeviation="1"/>
<feColorMatrix type="matrix" values="0 0 0 0 0.258824 0 0 0 0 0.713726 0 0 0 0 0.329412 0 0 0 0.3 0"/>
<feBlend mode="normal" in2="BackgroundImageFix" result="effect1_dropShadow"/>
<feBlend mode="normal" in="SourceGraphic" in2="effect1_dropShadow" result="shape"/>
</filter>
</defs>
</svg>
