<svg width="30" height="30" viewBox="0 0 30 30" fill="none" xmlns="http://www.w3.org/2000/svg">
<g filter="url(#filter0_d)">
<path fill-rule="evenodd" clip-rule="evenodd" d="M15 11.7728C15.075 11.7729 15.1499 11.774 15.2248 11.7754L15.231 11.7751L15.2512 11.7754C17.8321 11.6511 19.8936 9.51473 19.8936 6.90625C19.8936 4.21814 17.7045 2.03125 15.0136 2.03125L15 2.03127L14.9864 2.03125C12.2955 2.03125 10.1064 4.21814 10.1064 6.90625C10.1064 9.51473 12.1679 11.6511 14.7488 11.7754L14.769 11.7751C12.1913 11.6473 10.1335 9.51238 10.1335 6.90625C10.1335 4.22266 12.3153 2.0386 15 2.03127C17.6847 2.0386 19.8665 4.22266 19.8665 6.90625C19.8665 9.51238 17.8087 11.6473 15.231 11.7751C15.1586 11.7738 15.0861 11.7728 15.0136 11.7728L15 11.7728ZM14.769 11.7751C14.8414 11.7738 14.9139 11.7728 14.9864 11.7728L15 11.7728C14.925 11.7729 14.8501 11.774 14.7752 11.7754L14.769 11.7751Z" fill="#A6AFA7"/>
<path fill-rule="evenodd" clip-rule="evenodd" d="M8.68469 23.9688H5.08527C4.65125 23.9688 4.3894 23.7268 4.27197 23.5825C4.06925 23.3334 3.99071 23.0092 4.05664 22.6929C5.11132 17.6322 9.57854 13.9349 14.7383 13.8076C14.7437 13.8074 14.7491 13.8073 14.7545 13.8072C14.836 13.8102 14.9178 13.8123 15 13.8125C15.0822 13.8123 15.164 13.8102 15.2455 13.8072C15.2509 13.8073 15.2563 13.8074 15.2617 13.8076C20.4215 13.9349 24.8887 17.6322 25.9434 22.6929C26.0093 23.0092 25.9308 23.3334 25.728 23.5825C25.6106 23.7268 25.3488 23.9688 24.9147 23.9688H21.3153C20.7538 23.9688 20.2986 24.4234 20.2986 24.9844C20.2986 25.5453 20.7538 26 21.3153 26H24.9147C25.8465 26 26.7179 25.586 27.3056 24.8641C27.8962 24.1386 28.1253 23.1963 27.934 22.2789C27.3239 19.351 25.7075 16.6866 23.3827 14.7763C22.1148 13.7345 20.6661 12.945 19.1222 12.4372C20.8074 11.1765 21.8999 9.16647 21.8999 6.90625C21.8999 3.10268 18.8059 0.00734568 15 1.30589e-05C11.1941 0.00734684 8.1001 3.10268 8.1001 6.90625C8.1001 9.16647 9.19263 11.1765 10.8778 12.4372C9.33395 12.945 7.88517 13.7345 6.61726 14.7763C4.29251 16.6866 2.67613 19.351 2.06597 22.2789C1.87473 23.1963 2.10379 24.1386 2.69443 24.8641C3.28208 25.586 4.15353 26 5.08527 26H8.68469C9.24621 26 9.70138 25.5453 9.70138 24.9844C9.70138 24.4234 9.24621 23.9688 8.68469 23.9688ZM15.0136 2.03125C17.7045 2.03125 19.8936 4.21814 19.8936 6.90625C19.8936 9.51473 17.8321 11.6511 15.2512 11.7754L15.231 11.7751L15.2248 11.7754C15.1499 11.774 15.075 11.7729 15 11.7728C14.925 11.7729 14.8501 11.774 14.7752 11.7754L14.769 11.7751L14.7488 11.7754C12.1679 11.6511 10.1064 9.51473 10.1064 6.90625C10.1064 4.21814 12.2955 2.03125 14.9864 2.03125L15 2.03127L15.0136 2.03125Z" fill="#A6AFA7"/>
</g>
<defs>
<filter id="filter0_d" x="0" y="0" width="30" height="30" filterUnits="userSpaceOnUse" color-interpolation-filters="sRGB">
<feFlood flood-opacity="0" result="BackgroundImageFix"/>
<feColorMatrix in="SourceAlpha" type="matrix" values="0 0 0 0 0 0 0 0 0 0 0 0 0 0 0 0 0 0 127 0"/>
<feOffset dy="2"/>
<feGaussianBlur stdDeviation="1"/>
<feColorMatrix type="matrix" values="0 0 0 0 0.65098 0 0 0 0 0.686275 0 0 0 0 0.654902 0 0 0 0.3 0"/>
<feBlend mode="normal" in2="BackgroundImageFix" result="effect1_dropShadow"/>
<feBlend mode="normal" in="SourceGraphic" in2="effect1_dropShadow" result="shape"/>
</filter>
</defs>
</svg>
