<svg width="35" height="40" viewBox="0 0 35 40" fill="none" xmlns="http://www.w3.org/2000/svg">
<path d="M28.0884 13.5783C27.7634 13.2533 27.235 13.2533 26.91 13.5783L15.8334 24.655L9.755 18.5783C9.43 18.2533 8.90164 18.2533 8.57664 18.5783C8.25164 18.9033 8.25164 19.4317 8.57664 19.7567L15.2433 26.4234C15.4066 26.585 15.6199 26.6667 15.8333 26.6667C16.0466 26.6667 16.2599 26.5851 16.4216 26.4234L28.0883 14.7567C28.4134 14.4316 28.4134 13.9033 28.0884 13.5783Z" fill="#800080"/>
<path d="M34.405 5.03498L17.7384 0.0349805C17.5817 -0.0116602 17.4167 -0.0116602 17.26 0.0349805L0.593359 5.03498C0.241641 5.13998 0 5.46498 0 5.83334V24.1667C0 31.5367 11.2366 38.0917 17.2534 39.9634C17.3334 39.9884 17.4167 40 17.5 40C17.5833 40 17.6666 39.9884 17.7466 39.9634C23.7634 38.09 35 31.5366 35 24.1666V5.83334C35 5.46498 34.7584 5.14162 34.405 5.03498ZM33.3334 24.1666C33.3334 30.0183 24.0617 36.1716 17.5 38.2933C10.9384 36.1716 1.66664 30.0183 1.66664 24.1666V6.45334L17.5 1.70334L33.3334 6.45334V24.1666Z" fill="#800080"/>
</svg>
