<svg width="43" height="43" viewBox="0 0 43 43" fill="none" xmlns="http://www.w3.org/2000/svg">
<path d="M38.5208 32.25H34.9375C34.443 32.25 34.0417 31.8487 34.0417 31.3542C34.0417 30.8597 34.443 30.4583 34.9375 30.4583H38.5208C40.0025 30.4583 41.2083 29.2525 41.2083 27.7708V8.0625C41.2083 6.58079 40.0025 5.375 38.5208 5.375H17.9167C17.6784 5.375 17.4508 5.28004 17.2824 5.11342L13.9625 1.79167H4.47917C2.99746 1.79167 1.79167 2.99746 1.79167 4.47917V27.7708C1.79167 29.2525 2.99746 30.4583 4.47917 30.4583H8.0625C8.557 30.4583 8.95833 30.8597 8.95833 31.3542C8.95833 31.8487 8.557 32.25 8.0625 32.25H4.47917C2.00846 32.25 0 30.2398 0 27.7708V4.47917C0 2.01025 2.00846 0 4.47917 0H14.3333C14.5716 0 14.7992 0.0949583 14.9676 0.261583L18.2875 3.58333H38.5208C40.9915 3.58333 43 5.59358 43 8.0625V27.7708C43 30.2398 40.9915 32.25 38.5208 32.25Z" fill="#fff"/>
<path d="M21.5 35.8333C19.0293 35.8333 17.0208 33.8231 17.0208 31.3542C17.0208 28.8853 19.0293 26.875 21.5 26.875C23.9707 26.875 25.9792 28.8853 25.9792 31.3542C25.9792 33.8231 23.9707 35.8333 21.5 35.8333ZM21.5 28.6667C20.0183 28.6667 18.8125 29.8725 18.8125 31.3542C18.8125 32.8359 20.0183 34.0417 21.5 34.0417C22.9817 34.0417 24.1875 32.8359 24.1875 31.3542C24.1875 29.8725 22.9817 28.6667 21.5 28.6667Z" fill="#fff"/>
<path d="M22.9298 43H20.0703C19.1458 43 18.3807 42.3066 18.2893 41.3857L18.06 39.1085C17.5171 38.8666 16.9993 38.5656 16.5102 38.2073L14.4193 39.1515C13.5719 39.5313 12.59 39.2124 12.1296 38.4151L10.7016 35.9408C10.2376 35.1418 10.4544 34.1313 11.2051 33.5902L13.0505 32.2643C13.0165 31.9866 12.9896 31.6767 12.9896 31.3542C12.9896 31.0317 13.0165 30.7217 13.0505 30.4458L11.2051 29.12C10.4544 28.5789 10.2376 27.5666 10.7016 26.7675L12.1296 24.295C12.5918 23.4923 13.5773 23.1788 14.4175 23.5568L16.5102 24.5028C16.9993 24.1445 17.5171 23.8435 18.06 23.6016L18.2893 21.3244C18.3807 20.4053 19.1475 19.7119 20.0703 19.7119H22.9298C23.8543 19.7119 24.6193 20.4053 24.7107 21.3262L24.94 23.6034C25.4829 23.8453 26.0025 24.1481 26.4898 24.5046L28.5807 23.5604C29.4281 23.1788 30.41 23.4977 30.8704 24.2968L32.2984 26.7711C32.7624 27.5702 32.5456 28.5807 31.7949 29.1218L29.9495 30.4476C29.9853 30.7253 30.0104 31.0335 30.0104 31.356C30.0104 31.6785 29.9835 31.9884 29.9495 32.2643L31.7949 33.5902C32.5456 34.1313 32.7624 35.1435 32.2984 35.9426L30.8704 38.4151C30.4064 39.216 29.4192 39.5278 28.5825 39.1533L26.4898 38.2073C26.0007 38.5656 25.4829 38.8666 24.94 39.1085L24.7107 41.3875C24.6193 42.3066 23.8525 43 22.9298 43ZM16.6356 36.2723C16.8417 36.2723 17.0459 36.344 17.2108 36.4819C17.8181 36.9908 18.49 37.3795 19.2049 37.6411C19.5274 37.7594 19.7549 38.0514 19.7872 38.3936L20.0703 41.2083H22.9298L23.211 38.3936C23.2451 38.0514 23.4726 37.7594 23.7933 37.6411C24.5082 37.3795 25.1801 36.989 25.7875 36.4819C26.049 36.2615 26.4163 36.2114 26.7317 36.3529L29.317 37.5211L30.7468 35.0468L28.457 33.402C28.1793 33.2014 28.0396 32.8574 28.0987 32.5188C28.165 32.1407 28.217 31.7555 28.217 31.3578C28.217 30.96 28.165 30.5748 28.0987 30.1968C28.0396 29.8581 28.1793 29.5159 28.457 29.3135L30.7468 27.6687L29.3188 25.1944L26.7317 26.3608C26.4145 26.5023 26.049 26.4522 25.7875 26.2318C25.1819 25.723 24.51 25.3342 23.7933 25.0726C23.4708 24.9543 23.2433 24.6623 23.211 24.3201L22.9298 21.5H20.0703L19.789 24.3147C19.7549 24.6569 19.5274 24.949 19.2067 25.0672C18.4918 25.3288 17.8199 25.7194 17.2125 26.2264C16.951 26.4468 16.5837 26.497 16.2683 26.3554L13.683 25.1873L12.2514 27.6633L14.5412 29.3081C14.8189 29.5088 14.9586 29.8528 14.8995 30.1914C14.8332 30.5712 14.7812 30.9546 14.7812 31.3542C14.7812 31.7537 14.8332 32.1371 14.8995 32.5152C14.9586 32.8538 14.8189 33.196 14.5412 33.3985L12.2514 35.045L13.6794 37.5193L16.2665 36.3529C16.3866 36.2974 16.512 36.2723 16.6356 36.2723Z" fill="#fff"/>
</svg>
