<svg width="44" height="44" viewBox="0 0 44 44" fill="none" xmlns="http://www.w3.org/2000/svg">
<path d="M21.8057 43.9999C21.5655 43.9999 21.3308 43.9046 21.1567 43.7322C20.9403 43.5159 20.845 43.2042 20.9055 42.9054L22.2017 36.4246C22.2383 36.2449 22.3227 36.0818 22.4528 35.9553L36.7125 21.6956C37.7832 20.6249 39.5303 20.6249 40.601 21.6956L43.1933 24.2879C44.2658 25.3604 44.2658 27.1039 43.1933 28.1764L28.9337 42.4361C28.8072 42.5644 28.644 42.6506 28.4643 42.6872L21.9835 43.9834C21.9248 43.9944 21.8643 43.9999 21.8057 43.9999ZM23.947 37.0534L22.9753 41.9136L27.8355 40.9419L41.899 26.8784C42.2565 26.5209 42.2565 25.9398 41.899 25.5823L39.3067 22.9899C38.9492 22.6324 38.368 22.6324 38.0105 22.9899L23.947 37.0534Z" fill="#800080"/>
<path d="M17.4167 38.5H4.58333C2.05517 38.5 0 36.4448 0 33.9167V10.0833C0 7.55517 2.05517 5.5 4.58333 5.5H8.25C8.756 5.5 9.16667 5.91067 9.16667 6.41667C9.16667 6.92267 8.756 7.33333 8.25 7.33333H4.58333C3.06717 7.33333 1.83333 8.56717 1.83333 10.0833V33.9167C1.83333 35.4328 3.06717 36.6667 4.58333 36.6667H17.4167C17.9227 36.6667 18.3333 37.0773 18.3333 37.5833C18.3333 38.0893 17.9227 38.5 17.4167 38.5Z" fill="#800080"/>
<path d="M30.25 22C29.744 22 29.3333 21.5893 29.3333 21.0833V10.0833C29.3333 8.56717 28.0995 7.33333 26.5833 7.33333H22.9167C22.4107 7.33333 22 6.92267 22 6.41667C22 5.91067 22.4107 5.5 22.9167 5.5H26.5833C29.1115 5.5 31.1667 7.55517 31.1667 10.0833V21.0833C31.1667 21.5893 30.756 22 30.25 22Z" fill="#800080"/>
<path d="M21.0834 11H10.0834C8.56719 11 7.33335 9.76617 7.33335 8.25V4.58333C7.33335 4.07733 7.74402 3.66667 8.25002 3.66667H11.0917C11.517 1.57667 13.3705 0 15.5834 0C17.7962 0 19.6497 1.57667 20.075 3.66667H22.9167C23.4227 3.66667 23.8334 4.07733 23.8334 4.58333V8.25C23.8334 9.76617 22.5995 11 21.0834 11ZM9.16669 5.5V8.25C9.16669 8.75417 9.57919 9.16667 10.0834 9.16667H21.0834C21.5875 9.16667 22 8.75417 22 8.25V5.5H19.25C18.744 5.5 18.3334 5.08933 18.3334 4.58333C18.3334 3.06717 17.0995 1.83333 15.5834 1.83333C14.0672 1.83333 12.8334 3.06717 12.8334 4.58333C12.8334 5.08933 12.4227 5.5 11.9167 5.5H9.16669Z" fill="#800080"/>
<path d="M24.75 16.5002H6.41667C5.91067 16.5002 5.5 16.0895 5.5 15.5835C5.5 15.0775 5.91067 14.6668 6.41667 14.6668H24.75C25.256 14.6668 25.6667 15.0775 25.6667 15.5835C25.6667 16.0895 25.256 16.5002 24.75 16.5002Z" fill="#800080"/>
<path d="M24.75 22.0002H6.41667C5.91067 22.0002 5.5 21.5895 5.5 21.0835C5.5 20.5775 5.91067 20.1668 6.41667 20.1668H24.75C25.256 20.1668 25.6667 20.5775 25.6667 21.0835C25.6667 21.5895 25.256 22.0002 24.75 22.0002Z" fill="#800080"/>
<path d="M24.75 27.5001H6.41667C5.91067 27.5001 5.5 27.0895 5.5 26.5835C5.5 26.0775 5.91067 25.6668 6.41667 25.6668H24.75C25.256 25.6668 25.6667 26.0775 25.6667 26.5835C25.6667 27.0895 25.256 27.5001 24.75 27.5001Z" fill="#800080"/>
</svg>
