<svg width="52" height="34" viewBox="0 0 52 34" fill="none" xmlns="http://www.w3.org/2000/svg">
<path d="M25.9999 0C21.6365 0 18.0868 3.55862 18.0868 7.93334C18.0868 12.3081 21.6364 15.8667 25.9999 15.8667C30.3634 15.8667 33.913 12.308 33.913 7.93334C33.913 3.55873 30.3634 0 25.9999 0ZM25.9999 13.6C22.8845 13.6 20.3478 11.0568 20.3478 7.93334C20.3478 4.80992 22.8845 2.26673 25.9999 2.26673C29.1153 2.26673 31.652 4.80992 31.652 7.93334C31.652 11.0568 29.1154 13.6 25.9999 13.6Z" fill="#800080"/>
<path d="M41.826 9.06671C38.7106 9.06671 36.1739 11.6099 36.1739 14.7333C36.1739 17.8567 38.7106 20.3999 41.826 20.3999C44.9414 20.3999 47.4781 17.8567 47.4781 14.7333C47.4781 11.6099 44.9414 9.06671 41.826 9.06671ZM41.826 18.1333C39.9562 18.1333 38.4347 16.6079 38.4347 14.7333C38.4347 12.8588 39.9562 11.3333 41.826 11.3333C43.6958 11.3333 45.2173 12.8588 45.2173 14.7333C45.2173 16.6079 43.6957 18.1333 41.826 18.1333Z" fill="#800080"/>
<path d="M10.3344 9.06671C7.21668 9.06671 4.68232 11.6099 4.68232 14.7333C4.68232 17.8567 7.21901 20.3999 10.3344 20.3999C13.4499 20.3999 15.9866 17.8567 15.9866 14.7333C15.9866 11.6099 13.4521 9.06671 10.3344 9.06671ZM10.3344 18.1333C8.46467 18.1333 6.94315 16.6079 6.94315 14.7333C6.94315 12.8588 8.46467 11.3333 10.3344 11.3333C12.2042 11.3333 13.7257 12.8588 13.7257 14.7333C13.7257 16.6079 12.2041 18.1333 10.3344 18.1333Z" fill="#800080"/>
<path d="M25.9999 18.1333C17.8969 18.1333 11.3042 24.7429 11.3042 32.8666C11.3042 33.4922 11.8107 34 12.4347 34C13.0587 34 13.5652 33.4922 13.5652 32.8666C13.5652 25.9919 19.1427 20.4 25.9999 20.4C32.8571 20.4 38.4346 25.9919 38.4346 32.8666C38.4346 33.4922 38.9411 34 39.5651 34C40.1891 34 40.6955 33.4922 40.6955 32.8666C40.6955 24.7429 34.1029 18.1333 25.9999 18.1333Z" fill="#800080"/>
<path d="M41.826 22.6667C39.9654 22.6667 38.1431 23.1767 36.5559 24.14C36.0247 24.4664 35.8528 25.1623 36.1761 25.6972C36.5039 26.2322 37.1957 26.4022 37.7293 26.078C38.9614 25.3277 40.3768 24.9333 41.826 24.9333C46.1894 24.9333 49.7391 28.4919 49.7391 32.8666C49.7391 33.4922 50.2455 34 50.8695 34C51.4935 34 52 33.4922 52 32.8666C51.9999 27.2431 47.4352 22.6667 41.826 22.6667Z" fill="#800080"/>
<path d="M15.4417 24.1377C13.8568 23.1767 12.0346 22.6667 10.1739 22.6667C4.56468 22.6667 0 27.2431 0 32.8666C0 33.4922 0.506469 34 1.13047 34C1.75447 34 2.26093 33.4922 2.26093 32.8666C2.26083 28.4919 5.81045 24.9333 10.1739 24.9333C11.6231 24.9333 13.0384 25.3277 14.2683 26.0757C14.7996 26.3999 15.496 26.2299 15.8216 25.6949C16.1471 25.1599 15.9752 24.4641 15.4417 24.1377Z" fill="#800080"/>
</svg>
