<svg width="12" height="16" viewBox="0 0 12 16" fill="none" xmlns="http://www.w3.org/2000/svg">
<path d="M11.6687 1.424C11.552 1.356 8.78866 -0.215344 5.69 1.41C3.78266 2.41134 2.03866 1.88066 1.33334 1.582V0.666656C1.33334 0.298656 1.03534 0 0.666656 0C0.298 0 0 0.298656 0 0.666656V2V8.67934V15.3333C0 15.702 0.298 16 0.666656 16C1.03531 16 1.33331 15.702 1.33331 15.3333V9.67666C1.85931 9.846 2.55731 10.0033 3.37066 10.0027C4.252 10.0027 5.26266 9.81931 6.31 9.27C8.73466 7.99534 10.9033 9.20066 11 9.25666C11.2047 9.37466 11.4587 9.376 11.6653 9.25731C11.8727 9.13797 12 8.91797 12 8.67931V2C12 1.76334 11.874 1.54334 11.6687 1.424Z" fill="#C4C4C4"/>
</svg>
