<svg width="92" height="60" viewBox="0 0 92 60" fill="none" xmlns="http://www.w3.org/2000/svg">
<path d="M53.5582 20.958C53.4027 20.8645 49.7182 18.7039 45.5867 20.9387C43.0435 22.3156 40.7182 21.5859 39.7778 21.1753V19.9167C39.7778 19.4107 39.3805 19 38.8889 19C38.3973 19 38 19.4107 38 19.9167V21.75V30.9341V40.0833C38 40.5903 38.3973 41 38.8889 41C39.3804 41 39.7778 40.5903 39.7778 40.0833V32.3054C40.4791 32.5383 41.4097 32.7546 42.4942 32.7537C43.6693 32.7537 45.0169 32.5016 46.4133 31.7463C49.6462 29.9936 52.5378 31.6509 52.6667 31.7279C52.9395 31.8902 53.2782 31.892 53.5538 31.7288C53.8302 31.5647 54 31.2622 54 30.9341V21.75C54 21.4246 53.832 21.1221 53.5582 20.958Z" fill="#696969"/>
</svg>
