<svg width="19" height="19" viewBox="0 0 19 19" fill="none" xmlns="http://www.w3.org/2000/svg">
<path d="M8.39948 14.1004C8.48654 14.1875 8.58989 14.2565 8.70364 14.3036C8.81738 14.3507 8.93929 14.375 9.06241 14.375C9.18553 14.375 9.30744 14.3507 9.42119 14.3036C9.53493 14.2565 9.63829 14.1875 9.72534 14.1004L13.2609 10.5649C13.4367 10.3891 13.5354 10.1506 13.5354 9.90197C13.5354 9.65333 13.4367 9.41488 13.2609 9.23906C13.085 9.06325 12.8466 8.96448 12.5979 8.96448C12.3493 8.96448 12.1108 9.06325 11.935 9.23906L9.99991 11.1742V0.9375C9.99991 0.68886 9.90114 0.450403 9.72532 0.274587C9.54951 0.0987721 9.31105 0 9.06241 0C8.81377 0 8.57532 0.0987721 8.3995 0.274587C8.22368 0.450403 8.12491 0.68886 8.12491 0.9375V11.1742L6.1898 9.23906C6.01398 9.06325 5.77552 8.96448 5.52688 8.96448C5.27825 8.96448 5.03979 9.06325 4.86397 9.23906C4.68816 9.41488 4.58939 9.65333 4.58939 9.90197C4.58939 10.1506 4.68816 10.3891 4.86397 10.5649L8.39948 14.1004Z" fill="#800080"/>
<path d="M17.1875 8.125C16.9389 8.125 16.7004 8.22377 16.5246 8.39959C16.3488 8.5754 16.25 8.81386 16.25 9.0625V16.25H1.875V9.0625C1.875 8.81386 1.77623 8.5754 1.60041 8.39959C1.4246 8.22377 1.18614 8.125 0.9375 8.125C0.68886 8.125 0.450403 8.22377 0.274587 8.39959C0.0987721 8.5754 0 8.81386 0 9.0625V16.5625C0 16.9769 0.16462 17.3743 0.457646 17.6674C0.750671 17.9604 1.1481 18.125 1.5625 18.125H16.5625C16.9769 18.125 17.3743 17.9604 17.6674 17.6674C17.9604 17.3743 18.125 16.9769 18.125 16.5625V9.0625C18.125 8.81386 18.0262 8.5754 17.8504 8.39959C17.6746 8.22377 17.4361 8.125 17.1875 8.125Z" fill="#800080"/>
</svg>
