<svg width="44" height="44" viewBox="0 0 44 44" fill="none" xmlns="http://www.w3.org/2000/svg">
<path d="M18.3334 44.0001C14.795 44.0001 11.9167 41.1218 11.9167 37.5835C11.9167 37.0775 12.3274 36.6668 12.8334 36.6668C13.3394 36.6668 13.75 37.0775 13.75 37.5835C13.75 40.1098 15.807 42.1668 18.3334 42.1668C20.8597 42.1668 22.9167 40.1098 22.9167 37.5835C22.9167 37.0775 23.3274 36.6668 23.8334 36.6668C24.3394 36.6668 24.75 37.0775 24.75 37.5835C24.75 41.1218 21.8717 44.0001 18.3334 44.0001Z" fill="#fff"/>
<path d="M33.9167 38.5H2.75C1.23383 38.5 0 37.2662 0 35.75C0 34.9452 0.350167 34.1844 0.9625 33.66C0.999167 33.6289 1.0395 33.5995 1.07983 33.5757C3.89033 31.1355 5.5 27.6192 5.5 23.9067V18.3334C5.5 12.298 9.7845 7.0162 15.6897 5.77687C16.1773 5.67604 16.6705 5.98954 16.775 6.48637C16.8795 6.98137 16.5623 7.4672 16.0655 7.5717C11.0055 8.6332 7.33333 13.1597 7.33333 18.3334V23.9067C7.33333 28.2004 5.45233 32.2649 2.17067 35.0552C2.14317 35.079 2.11567 35.0992 2.08633 35.1194C1.92317 35.2899 1.83333 35.5154 1.83333 35.75C1.83333 36.256 2.244 36.6667 2.75 36.6667H33.9167C34.4227 36.6667 34.8333 36.256 34.8333 35.75C34.8333 35.5135 34.7417 35.288 34.5803 35.1175C34.5528 35.0992 34.5253 35.079 34.4997 35.057C32.791 33.6179 31.4545 31.8157 30.5287 29.7C30.3252 29.2362 30.536 28.6954 30.9998 28.4919C31.4673 28.292 32.0045 28.501 32.208 28.963C33.0055 30.7799 34.1422 32.3309 35.5905 33.5757C35.6308 33.5995 35.6693 33.627 35.7042 33.6582C36.3165 34.1844 36.6667 34.9452 36.6667 35.75C36.6667 37.2662 35.4328 38.5 33.9167 38.5Z" fill="#fff"/>
<path d="M32.0834 23.8333C25.5127 23.8333 20.1667 18.4873 20.1667 11.9167C20.1667 5.346 25.5127 0 32.0834 0C38.654 0 44 5.346 44 11.9167C44 18.4873 38.654 23.8333 32.0834 23.8333ZM32.0834 1.83333C26.5229 1.83333 22 6.35617 22 11.9167C22 17.4772 26.5229 22 32.0834 22C37.6439 22 42.1667 17.4772 42.1667 11.9167C42.1667 6.35617 37.6439 1.83333 32.0834 1.83333Z" fill="#fff"/>
</svg>
