<svg width="41" height="41" viewBox="0 0 41 41" fill="none" xmlns="http://www.w3.org/2000/svg">
<path d="M33.3125 35.0208H28.1875C27.716 35.0208 27.3333 34.6382 27.3333 34.1667V30.8252C27.3333 29.9864 26.8533 29.3167 26.4518 28.9033C25.0988 27.511 24.5231 25.6045 24.8699 23.6758C25.3004 21.2807 27.2718 19.311 29.6652 18.8873C31.4368 18.5764 33.2322 19.0479 34.5903 20.1874C35.9485 21.3268 36.7292 22.9976 36.7292 24.7708C36.7292 26.3681 36.0988 27.8663 34.9559 28.9955C34.5955 29.3509 34.1667 29.9317 34.1667 30.6782V34.1667C34.1667 34.6382 33.784 35.0208 33.3125 35.0208ZM29.0417 33.3125H32.4583V30.6782C32.4583 29.6345 32.9196 28.606 33.7567 27.7792C34.5715 26.9746 35.0208 25.9069 35.0208 24.7708C35.0208 23.505 34.4639 22.3125 33.4919 21.496C32.5079 20.6708 31.2557 20.3428 29.9625 20.5683C28.2593 20.8707 26.8567 22.2715 26.5509 23.9765C26.3032 25.3568 26.7132 26.7183 27.6784 27.7126C28.5702 28.6317 29.0417 29.7079 29.0417 30.8252V33.3125Z" fill="#800080"/>
<path d="M40.1458 41H21.3542C20.8827 41 20.5 40.6173 20.5 40.1458V36.5293C20.5 35.2395 21.4652 34.1462 22.7448 33.9873L28.0816 33.3193L33.3125 33.3125L38.7553 33.9873C40.0348 34.1462 41 35.2395 41 36.5293V40.1458C41 40.6173 40.6173 41 40.1458 41ZM22.2083 39.2917H39.2917V36.5293C39.2917 36.1005 38.9705 35.7349 38.5434 35.682L33.2066 35.014L28.1875 35.0208L22.9566 35.682C22.5295 35.7349 22.2083 36.0988 22.2083 36.5293V39.2917Z" fill="#800080"/>
<path d="M16.2292 34.1667H4.27083C1.91675 34.1667 0 32.2499 0 29.8958V4.27083C0 1.91675 1.91675 0 4.27083 0H24.7708C27.1249 0 29.0417 1.91675 29.0417 4.27083V14.5208C29.0417 14.9923 28.659 15.375 28.1875 15.375C27.716 15.375 27.3333 14.9923 27.3333 14.5208V4.27083C27.3333 2.85804 26.1836 1.70833 24.7708 1.70833H4.27083C2.85804 1.70833 1.70833 2.85804 1.70833 4.27083V29.8958C1.70833 31.3086 2.85804 32.4583 4.27083 32.4583H16.2292C16.7007 32.4583 17.0833 32.841 17.0833 33.3125C17.0833 33.784 16.7007 34.1667 16.2292 34.1667Z" fill="#800080"/>
<path d="M21.3542 22.2083H7.6875C7.216 22.2083 6.83333 21.8257 6.83333 21.3542C6.83333 20.8827 7.216 20.5 7.6875 20.5H21.3542C21.8257 20.5 22.2083 20.8827 22.2083 21.3542C22.2083 21.8257 21.8257 22.2083 21.3542 22.2083Z" fill="#800080"/>
<path d="M19.6458 29.0417H7.6875C7.216 29.0417 6.83333 28.659 6.83333 28.1875C6.83333 27.716 7.216 27.3333 7.6875 27.3333H19.6458C20.1173 27.3333 20.5 27.716 20.5 28.1875C20.5 28.659 20.1173 29.0417 19.6458 29.0417Z" fill="#800080"/>
<path d="M21.3542 15.375H7.6875C7.216 15.375 6.83333 14.9923 6.83333 14.5208C6.83333 14.0493 7.216 13.6667 7.6875 13.6667H21.3542C21.8257 13.6667 22.2083 14.0493 22.2083 14.5208C22.2083 14.9923 21.8257 15.375 21.3542 15.375Z" fill="#800080"/>
<path d="M21.3542 8.54167H7.6875C7.216 8.54167 6.83333 8.159 6.83333 7.6875C6.83333 7.216 7.216 6.83333 7.6875 6.83333H21.3542C21.8257 6.83333 22.2083 7.216 22.2083 7.6875C22.2083 8.159 21.8257 8.54167 21.3542 8.54167Z" fill="#800080"/>
</svg>
